HIERARCHY
ROOT Hips
{
    OFFSET 0.000000 0.000000 0.000000
    CHANNELS 6 Xposition Yposition Zposition Zrotation Yrotation Xrotation
    JOINT Chest
    {
        OFFSET 0.000000 1.634758 -0.000000
        CHANNELS 3 Zrotation Yrotation Xrotation
        JOINT Chest2
        {
            OFFSET 0.000000 2.197341 0.000000
            CHANNELS 3 Zrotation Yrotation Xrotation
            JOINT Neck
            {
                OFFSET 0.000000 0.961544 0.000000
                CHANNELS 3 Zrotation Yrotation Xrotation
                JOINT Head
                {
                    OFFSET 0.000000 0.632542 -0.032565
                    CHANNELS 3 Zrotation Yrotation Xrotation
                    End Site
                    {
                        OFFSET -0.000001 0.439502 2.922845
                    }
                }
            }
            JOINT LeftCollar
            {
                OFFSET 0.167536 0.778237 -0.168280
                CHANNELS 3 Zrotation Yrotation Xrotation
                JOINT LeftShoulder
                {
                    OFFSET 0.831514 -0.002900 0.006458
                    CHANNELS 3 Zrotation Yrotation Xrotation
                    JOINT LeftElbow
                    {
                        OFFSET 2.272872 -0.026639 0.059314
                        CHANNELS 3 Zrotation Yrotation Xrotation
                        JOINT LeftWrist
                        {
                            OFFSET 2.081982 -0.024402 0.054333
                            CHANNELS 3 Zrotation Yrotation Xrotation
                            JOINT LeftHandThumb1
                            {
                                OFFSET 0.218903 -0.128645 0.283837
                                CHANNELS 3 Zrotation Yrotation Xrotation
                                JOINT LeftHandThumb2
                                {
                                    OFFSET 0.137157 -0.025101 0.077902
                                    CHANNELS 3 Zrotation Yrotation Xrotation
                                    JOINT LeftHandThumb3
                                    {
                                        OFFSET 0.171674 0.036904 -0.052013
                                        CHANNELS 3 Zrotation Yrotation Xrotation
                                        End Site
                                        {
                                            OFFSET 0.251618 0.091573 0.011786
                                        }
                                    }
                                }
                            }
                            JOINT LeftHandFore1
                            {
                                OFFSET 0.767340 -0.016076 0.196678
                                CHANNELS 3 Zrotation Yrotation Xrotation
                                JOINT LeftHandFore2
                                {
                                    OFFSET 0.216038 0.012328 0.013082
                                    CHANNELS 3 Zrotation Yrotation Xrotation
                                    JOINT LeftHandFore3
                                    {
                                        OFFSET 0.129239 0.001461 0.007624
                                        CHANNELS 3 Zrotation Yrotation Xrotation
                                        End Site
                                        {
                                            OFFSET 0.193139 -0.002701 0.007547
                                        }
                                    }
                                }
                            }
                            JOINT LeftHandMiddle1
                            {
                                OFFSET 0.709887 -0.008320 0.018526
                                CHANNELS 3 Zrotation Yrotation Xrotation
                                JOINT LeftHandMiddle2
                                {
                                    OFFSET 0.244546 -0.006833 0.014631
                                    CHANNELS 3 Zrotation Yrotation Xrotation
                                    JOINT LeftHandMiddle3
                                    {
                                        OFFSET 0.143763 -0.025002 0.009513
                                        CHANNELS 3 Zrotation Yrotation Xrotation
                                        End Site
                                        {
                                            OFFSET 0.228894 -0.054529 0.016259
                                        }
                                    }
                                }
                            }
                            JOINT LeftHandRing1
                            {
                                OFFSET 0.743817 -0.005823 -0.153668
                                CHANNELS 3 Zrotation Yrotation Xrotation
                                JOINT LeftHandRing2
                                {
                                    OFFSET 0.347131 -0.064865 -0.005052
                                    CHANNELS 3 Zrotation Yrotation Xrotation
                                    JOINT LeftHandRing3
                                    {
                                        OFFSET 0.121200 -0.062069 0.007974
                                        CHANNELS 3 Zrotation Yrotation Xrotation
                                        End Site
                                        {
                                            OFFSET 0.095250 -0.072591 0.008824
                                        }
                                    }
                                }
                            }
                            JOINT LeftHandLittle1
                            {
                                OFFSET 0.689408 -0.053302 -0.308304
                                CHANNELS 3 Zrotation Yrotation Xrotation
                                JOINT LeftHandLittle2
                                {
                                    OFFSET 0.189664 -0.044582 -0.009696
                                    CHANNELS 3 Zrotation Yrotation Xrotation
                                    JOINT LeftHandLittle3
                                    {
                                        OFFSET 0.087166 -0.083031 0.002069
                                        CHANNELS 3 Zrotation Yrotation Xrotation
                                        End Site
                                        {
                                            OFFSET 0.108006 -0.155188 0.023240
                                        }
                                    }
                                }
                            }
                        }
                    }
                }
            }
            JOINT RightCollar
            {
                OFFSET -0.167536 0.778237 -0.168280
                CHANNELS 3 Zrotation Yrotation Xrotation
                JOINT RightShoulder
                {
                    OFFSET -0.831514 -0.002900 0.006457
                    CHANNELS 3 Zrotation Yrotation Xrotation
                    JOINT RightElbow
                    {
                        OFFSET -2.272872 -0.026639 0.059313
                        CHANNELS 3 Zrotation Yrotation Xrotation
                        JOINT RightWrist
                        {
                            OFFSET -2.081982 -0.024402 0.054331
                            CHANNELS 3 Zrotation Yrotation Xrotation
                            JOINT RightHandThumb1
                            {
                                OFFSET -0.218911 -0.128571 0.283837
                                CHANNELS 3 Zrotation Yrotation Xrotation
                                JOINT RightHandThumb2
                                {
                                    OFFSET -0.137157 -0.025101 0.077902
                                    CHANNELS 3 Zrotation Yrotation Xrotation
                                    JOINT RightHandThumb3
                                    {
                                        OFFSET -0.140065 -0.053900 0.104957
                                        CHANNELS 3 Zrotation Yrotation Xrotation
                                        End Site
                                        {
                                            OFFSET -0.133818 -0.031817 0.230037
                                        }
                                    }
                                }
                            }
                            JOINT RightHandFore1
                            {
                                OFFSET -0.767344 -0.015991 0.196679
                                CHANNELS 3 Zrotation Yrotation Xrotation
                                JOINT RightHandFore2
                                {
                                    OFFSET -0.215851 -0.012586 0.015702
                                    CHANNELS 3 Zrotation Yrotation Xrotation
                                    JOINT RightHandFore3
                                    {
                                        OFFSET -0.128423 -0.013402 0.009482
                                        CHANNELS 3 Zrotation Yrotation Xrotation
                                        End Site
                                        {
                                            OFFSET -0.190144 -0.029978 0.017710
                                        }
                                    }
                                }
                            }
                            JOINT RightHandMiddle1
                            {
                                OFFSET -0.709887 -0.008302 0.018525
                                CHANNELS 3 Zrotation Yrotation Xrotation
                                JOINT RightHandMiddle2
                                {
                                    OFFSET -0.122742 -0.208035 0.041448
                                    CHANNELS 3 Zrotation Yrotation Xrotation
                                    JOINT RightHandMiddle3
                                    {
                                        OFFSET 0.140738 0.016276 -0.036225
                                        CHANNELS 3 Zrotation Yrotation Xrotation
                                        End Site
                                        {
                                            OFFSET 0.141324 0.182528 -0.048386
                                        }
                                    }
                                }
                            }
                            JOINT RightHandRing1
                            {
                                OFFSET -0.743819 -0.005785 -0.153669
                                CHANNELS 3 Zrotation Yrotation Xrotation
                                JOINT RightHandRing2
                                {
                                    OFFSET -0.144569 -0.316360 0.061230
                                    CHANNELS 3 Zrotation Yrotation Xrotation
                                    JOINT RightHandRing3
                                    {
                                        OFFSET 0.131632 0.013248 -0.033202
                                        CHANNELS 3 Zrotation Yrotation Xrotation
                                        End Site
                                        {
                                            OFFSET 0.044237 0.110273 -0.017410
                                        }
                                    }
                                }
                            }
                            JOINT RightHandLittle1
                            {
                                OFFSET -0.689403 -0.053298 -0.308303
                                CHANNELS 3 Zrotation Yrotation Xrotation
                                JOINT RightHandLittle2
                                {
                                    OFFSET -0.070626 -0.179669 0.028037
                                    CHANNELS 3 Zrotation Yrotation Xrotation
                                    JOINT RightHandLittle3
                                    {
                                        OFFSET 0.117846 -0.019946 -0.014488
                                        CHANNELS 3 Zrotation Yrotation Xrotation
                                        End Site
                                        {
                                            OFFSET 0.083348 0.170556 -0.015880
                                        }
                                    }
                                }
                            }
                        }
                    }
                }
            }
        }
    }
    JOINT LeftHip
    {
        OFFSET 0.685143 0.673822 -0.044491
        CHANNELS 3 Zrotation Yrotation Xrotation
        JOINT LeftKnee
        {
            OFFSET 0.085364 -3.750208 0.017676
            CHANNELS 3 Zrotation Yrotation Xrotation
            JOINT LeftAnkle
            {
                OFFSET 0.094583 -4.155206 0.019585
                CHANNELS 3 Zrotation Yrotation Xrotation
                JOINT LeftToe
                {
                    OFFSET -0.000000 -0.395925 0.621478
                    CHANNELS 3 Zrotation Yrotation Xrotation
                    End Site
                    {
                        OFFSET -0.000000 -0.077878 0.321152
                    }
                }
            }
        }
    }
    JOINT RightHip
    {
        OFFSET -0.685143 0.673822 -0.044492
        CHANNELS 3 Zrotation Yrotation Xrotation
        JOINT RightKnee
        {
            OFFSET -0.085364 -3.750208 0.017677
            CHANNELS 3 Zrotation Yrotation Xrotation
            JOINT RightAnkle
            {
                OFFSET -0.094583 -4.155206 0.019585
                CHANNELS 3 Zrotation Yrotation Xrotation
                JOINT RightToe
                {
                    OFFSET -0.000000 -0.395925 0.621478
                    CHANNELS 3 Zrotation Yrotation Xrotation
                    End Site
                    {
                        OFFSET -0.000000 -0.077878 0.321152
                    }
                }
            }
        }
    }
}
MOTION
Frames: 5
Frame Time: 0.033333
-0.001611 8.264678 -0.479481 180.000000 -0.000011 180.000000 3.814771 -0.768779 -3.243201 1.130004 0.063252 -5.188640 -17.239656 -0.145891 3.733167 0.017829 -0.346131 9.278505 12.233997 -8.920528 -0.023095 56.534168 -15.723531 -24.094995 0.223973 -41.656540 -0.596080 16.353212 11.115050 -103.077286 -0.000010 0.000007 0.000017 3.491793 -14.768812 -17.879704 -5.775654 5.634471 -0.477410 -9.651860 0.574688 -0.231630 0.000758 -0.121081 -0.016458 2.821296 0.111846 -0.110662 -5.112514 1.868761 0.202063 8.409139 0.385571 -0.416646 2.350353 0.108026 -0.114351 2.522836 -1.222007 0.985302 9.234492 1.696481 0.384007 6.902956 1.018315 -0.047722 8.880188 -1.171674 -2.719973 18.823023 4.902342 0.869646 20.079493 2.869041 2.080070 -12.048333 9.790810 -0.042642 -57.880486 22.145805 -40.830975 -0.318604 47.508625 -0.731229 -13.752408 -10.091252 -77.579712 0.000006 -0.000014 -0.000003 30.730480 -2.271031 6.848802 1.764782 -12.808769 -0.219025 3.031182 -1.285606 -0.039417 -0.013199 -0.089657 0.061164 -4.325582 0.175586 -0.479197 -52.241215 -10.929573 3.015103 -125.811050 -24.754330 -5.395495 -41.686474 -6.036473 -8.313890 -57.583057 -6.875694 7.620742 -111.381172 -21.862890 -6.054705 -55.347454 -10.494132 -10.638531 -64.335670 -4.521307 8.267108 -88.325989 -11.555923 -18.785616 -79.801514 -6.067047 -9.938311 -1.247546 15.329411 -6.145681 0.062534 0.398975 17.813595 -12.332534 -7.005421 -12.028307 -0.213506 -1.982441 -7.482672 -0.129763 -19.778965 -4.567045 -0.042496 -0.330235 14.667536 15.378430 9.464196 -9.715018 0.238985 2.336466 -7.788864
-0.001611 8.264678 -0.479481 180.000000 -0.000011 180.000000 4.072878 -0.615093 -3.103330 1.200020 0.041485 -5.449767 -16.124222 -1.211206 3.156970 0.124750 -2.421618 8.209023 11.800170 -8.529140 -0.015194 50.312431 -14.260615 -25.370741 0.236263 -42.525303 -0.614505 16.729136 9.300740 -91.725098 -0.000018 0.000002 0.000015 3.491971 -14.768840 -17.879873 -5.775463 5.634608 -0.477654 -9.651871 0.574697 -0.231619 0.000715 -0.121291 -0.016517 2.821262 0.112463 -0.110694 -5.112520 1.868767 0.202082 8.409138 0.385574 -0.416655 2.350356 0.108019 -0.114348 2.522814 -1.221981 0.985197 9.234272 1.696348 0.383693 6.902905 1.018786 -0.047901 8.880160 -1.171666 -2.719984 18.822906 4.902588 0.869595 20.079494 2.869043 2.080070 -12.157024 10.000793 -0.050514 -62.197384 24.686241 -45.758564 -0.313524 47.236523 -0.724299 -12.976067 -9.830714 -75.405182 0.000003 -0.000009 0.000010 30.730446 -2.270150 6.848249 1.764663 -12.808678 -0.218696 3.031185 -1.285614 -0.039408 -0.013283 -0.089790 0.061494 -4.325471 0.175910 -0.479692 -52.241219 -10.929566 3.015117 -125.811050 -24.754330 -5.395503 -41.686489 -6.036565 -8.313783 -57.583038 -6.875803 7.620654 -111.380432 -21.862724 -6.057052 -55.347446 -10.494131 -10.638529 -64.335762 -4.520787 8.267139 -88.325859 -11.555914 -18.785992 -79.801514 -6.067045 -9.938314 -1.214591 15.968800 -7.989228 0.089445 0.474632 21.342100 -13.111712 -6.746688 -13.132034 -0.227714 -1.808939 -6.454930 -0.217926 -21.422268 -4.572173 -0.042484 -0.330189 14.665649 15.466188 10.845647 -8.674410 0.231090 2.603779 -8.557196
-0.001611 8.264678 -0.479481 180.000000 -0.000011 180.000000 4.329524 -0.638042 -3.013965 1.267848 0.043449 -5.513205 -14.933722 -2.412308 2.719336 0.242850 -4.706379 7.375302 11.085707 -7.920515 -0.012823 37.484425 -13.852575 -39.538315 0.328621 -48.035164 -0.744820 11.935804 5.985246 -72.300026 -0.000004 0.000019 0.000000 3.492170 -14.768850 -17.880045 -5.775253 5.634726 -0.477970 -9.651865 0.574698 -0.231629 0.000686 -0.121422 -0.016579 2.821239 0.113052 -0.110713 -5.112509 1.868769 0.202063 8.409137 0.385571 -0.416651 2.350354 0.108025 -0.114355 2.522804 -1.221959 0.985090 9.234069 1.696212 0.383401 6.902856 1.019255 -0.048060 8.880188 -1.171673 -2.719937 18.822786 4.902835 0.869565 20.079494 2.869044 2.080070 -12.290885 10.229795 -0.052769 -67.994446 28.246510 -52.177486 -0.259002 44.035656 -0.647783 -12.393911 -9.558201 -73.192940 -0.000001 -0.000009 -0.000002 30.730175 -2.269259 6.847881 1.764551 -12.808592 -0.218373 3.031183 -1.285609 -0.039415 -0.013362 -0.089868 0.061800 -4.325367 0.176231 -0.480186 -52.241222 -10.929575 3.015112 -125.811050 -24.754330 -5.395501 -41.686920 -6.035566 -8.312929 -57.583023 -6.876203 7.620924 -111.379990 -21.862572 -6.059347 -55.347454 -10.494132 -10.638534 -64.335854 -4.520395 8.267213 -88.325737 -11.555898 -18.786373 -79.801514 -6.067047 -9.938311 -1.069593 18.594173 -9.851885 0.121167 0.548932 24.892256 -13.703450 -8.158461 -13.669190 -0.229924 -1.563916 -5.266168 -0.308104 -23.086967 -4.574553 -0.042472 -0.330144 14.663568 15.926714 11.927251 -7.510136 0.217372 2.975296 -9.450329
-0.001611 8.264678 -0.479481 180.000000 -0.000011 180.000000 4.503540 -0.370178 -2.993582 1.469676 -0.010905 -5.328355 -13.805752 -3.475387 2.625911 0.354321 -6.849440 7.216198 9.980178 -7.055990 0.000490 24.934258 -11.699273 -47.513756 0.628894 -59.071854 -1.117230 7.190867 4.072771 -61.782738 0.000000 0.000009 0.000005 3.492371 -14.768875 -17.880222 -5.775036 5.634830 -0.478334 -9.651848 0.574683 -0.231646 0.000669 -0.121472 -0.016642 2.821226 0.113591 -0.110724 -5.112504 1.868760 0.202051 8.409134 0.385576 -0.416649 2.350358 0.108025 -0.114353 2.522817 -1.221957 0.985013 9.233872 1.696068 0.383100 6.902816 1.019457 -0.048121 8.880230 -1.171715 -2.719771 18.822660 4.903078 0.869526 20.079498 2.869039 2.080066 -12.205938 10.480857 -0.068107 -71.687218 34.608471 -66.477867 -0.224116 41.665985 -0.596282 -12.244330 -9.435442 -62.529945 0.000001 -0.000007 0.000002 30.729527 -2.268497 6.847536 1.764444 -12.808515 -0.218028 3.031177 -1.285603 -0.039410 -0.013416 -0.089868 0.062068 -4.325259 0.176545 -0.480672 -52.241207 -10.929569 3.015106 -125.811050 -24.754330 -5.395498 -41.688076 -6.032872 -8.310655 -57.583031 -6.876617 7.621182 -111.379753 -21.862452 -6.062041 -55.347446 -10.494131 -10.638530 -64.335938 -4.520097 8.267416 -88.325607 -11.555887 -18.786753 -79.801514 -6.067044 -9.938307 -0.763379 23.957415 -11.555021 0.154328 0.615369 28.155018 -15.043715 -12.216375 -12.645491 -0.241061 -1.475223 -4.349339 -0.395800 -24.687506 -4.574197 -0.042461 -0.330105 14.661634 16.675406 12.695048 -6.275224 0.193476 3.436538 -10.406474
-0.001611 8.264678 -0.479481 180.000000 -0.000011 180.000000 4.679142 0.148495 -3.014289 1.530340 -0.102097 -4.991920 -12.858212 -4.684052 2.652992 0.479860 -9.239620 7.269515 8.742046 -6.267788 0.013162 17.122396 -6.197333 -45.086376 1.243642 -69.582809 -1.797224 7.508151 4.054560 -61.943081 0.000016 0.000010 0.000007 3.492594 -14.768886 -17.880413 -5.774800 5.634918 -0.478753 -9.651847 0.574690 -0.231638 0.000651 -0.121004 -0.016845 2.821217 0.114090 -0.110724 -5.112492 1.868762 0.202061 8.409142 0.385571 -0.416653 2.350355 0.108021 -0.114350 2.522820 -1.221955 0.985010 9.233688 1.695933 0.382803 6.902773 1.019663 -0.048200 8.880282 -1.171763 -2.719474 18.822561 4.903323 0.869481 20.079496 2.869043 2.080070 -11.739838 10.693023 -0.085499 -74.966202 39.327099 -75.533684 -0.243926 43.046410 -0.625806 -12.399840 -9.260141 -51.722824 0.000003 -0.000014 -0.000002 30.728964 -2.268151 6.847471 1.764331 -12.808443 -0.217681 3.031193 -1.285621 -0.039417 -0.013482 -0.089583 0.062392 -4.325148 0.176849 -0.481164 -52.241207 -10.929583 3.015114 -125.811058 -24.754330 -5.395499 -41.689747 -6.028975 -8.307353 -57.583080 -6.876753 7.621632 -111.379860 -21.862352 -6.064678 -55.347454 -10.494130 -10.638533 -64.336014 -4.519844 8.267776 -88.325485 -11.555871 -18.787128 -79.801521 -6.067043 -9.938313 -0.386352 30.149115 -12.967813 0.185641 0.670600 30.944725 -16.780664 -17.038071 -10.438514 -0.258008 -1.482221 -3.755227 -0.476287 -26.138332 -4.571381 -0.042449 -0.330057 14.659603 17.625345 13.138721 -5.037464 0.156732 3.967481 -11.366704
